<?xml version="1.0" encoding="UTF-8"?>
<!DOCTYPE svg PUBLIC "-//W3C//DTD SVG 1.1//EN" "http://www.w3.org/Graphics/SVG/1.1/DTD/svg11.dtd">
<!-- Creator: CorelDRAW 2021.5 -->
<svg xmlns="http://www.w3.org/2000/svg" xml:space="preserve" width="0.306307in" height="0.306268in" version="1.1" style="shape-rendering:geometricPrecision; text-rendering:geometricPrecision; image-rendering:optimizeQuality; fill-rule:evenodd; clip-rule:evenodd"
viewBox="0 0 322.16 322.12"
 xmlns:xlink="http://www.w3.org/1999/xlink"
 xmlns:xodm="http://www.corel.com/coreldraw/odm/2003">
 <defs>
  <style type="text/css">
   <![CDATA[
    .fil1 {fill:#201E1E}
    .fil0 {fill:#62FF00}
   ]]>
  </style>
 </defs>
 <g id="Layer_x0020_1">
  <metadata id="CorelCorpID_0Corel-Layer"/>
  <g id="_1855435223360">
   <rect class="fil0" x="-0" y="-0" width="322.16" height="322.12" rx="146.84" ry="161.06"/>
   <path class="fil1" d="M161.72 46.24l0.03 0c62.13,0 112.96,50.83 112.96,112.96 0,62.13 -50.83,112.96 -112.96,112.96l-0.03 0c-62.13,0 -112.96,-50.83 -112.96,-112.96 0,-62.13 50.83,-112.96 112.96,-112.96zm0 14.38l0.03 0c54.22,0 98.59,44.36 98.59,98.58l0 0c0,54.22 -44.36,98.58 -98.59,98.58l-0.03 0c-54.22,0 -98.58,-44.36 -98.58,-98.58l0 -0c0,-54.22 44.36,-98.58 98.58,-98.58z"/>
   <polygon class="fil1" points="130.23,86.32 121.73,141.29 141.76,156.21 145.47,126.62 198.29,154.52 130.19,87.93 130.27,86.37 "/>
   <polygon class="fil1" points="194.01,224.36 202.51,169.39 182.48,154.47 178.77,184.06 125.95,156.16 194.05,222.76 193.96,224.31 "/>
  </g>
 </g>
</svg>
